<svg width="22" height="27" viewBox="0 0 22 27" fill="none" xmlns="http://www.w3.org/2000/svg">
<path d="M14.9746 4.30621C15.4853 3.71803 15.8748 3.03483 16.1205 2.29584C16.3663 1.55686 16.4635 0.776641 16.4067 0C14.8386 0.126469 13.383 0.863343 12.3535 2.05186C11.8606 2.62149 11.487 3.28417 11.2549 4.00065C11.0228 4.71714 10.937 5.47287 11.0025 6.22309C11.7674 6.22945 12.5235 6.05988 13.2123 5.72748C13.9011 5.39508 14.504 4.90878 14.9746 4.30621ZM18.3792 14.3495C18.3883 13.3152 18.661 12.3001 19.1715 11.4003C19.6821 10.5004 20.4138 9.74535 21.2975 9.20639C20.7398 8.40351 20.0025 7.74151 19.1442 7.27288C18.2859 6.80424 17.3301 6.54187 16.3526 6.50657C14.245 6.29058 12.2995 7.73499 11.1781 7.73499C10.0568 7.73499 8.47606 6.53357 6.7197 6.56056C5.57149 6.59836 4.45268 6.93284 3.47239 7.5314C2.49211 8.12996 1.68383 8.97215 1.12638 9.97584C-1.25146 14.1066 0.518409 20.2487 2.89625 23.5829C3.97708 25.2163 5.32812 27.0657 7.1115 26.9982C8.89488 26.9307 9.47583 25.8913 11.5429 25.8913C13.61 25.8913 14.245 26.9982 16.0014 26.9577C17.7577 26.9172 19.0007 25.2838 20.1356 23.6504C20.9395 22.4646 21.5675 21.1687 22 19.8032C20.9293 19.3469 20.0157 18.5873 19.3723 17.6181C18.7288 16.6489 18.3836 15.5126 18.3792 14.3495Z" fill="black"/>
</svg>
