<svg width="27" height="28" viewBox="0 0 27 28" fill="none" xmlns="http://www.w3.org/2000/svg">
<path d="M26.9843 14.2619C26.9843 13.1148 26.8925 12.2777 26.6937 11.4095H13.7675V16.5872H21.3549C21.202 17.8739 20.3759 19.8117 18.5402 21.1138L18.5145 21.2871L22.6015 24.4957L22.8847 24.5243C25.4851 22.0905 26.9843 18.5095 26.9843 14.2619Z" fill="#4285F4"/>
<path d="M13.7675 27.9037C17.4846 27.9037 20.6052 26.6635 22.8846 24.5243L18.5402 21.1137C17.3776 21.9353 15.8173 22.5089 13.7675 22.5089C10.1267 22.5089 7.03672 20.0751 5.93522 16.7112L5.77376 16.7251L1.52402 20.058L1.46844 20.2146C3.73241 24.7722 8.38279 27.9037 13.7675 27.9037Z" fill="#34A853"/>
<path d="M5.93527 16.7113C5.64463 15.8432 5.47643 14.913 5.47643 13.9519C5.47643 12.9907 5.64463 12.0606 5.91998 11.1925L5.91228 11.0076L1.60929 7.62109L1.4685 7.68896C0.53541 9.58024 0 11.7041 0 13.9519C0 16.1997 0.53541 18.3234 1.4685 20.2147L5.93527 16.7113Z" fill="#FBBC05"/>
<path d="M13.7675 5.3947C16.3527 5.3947 18.0965 6.52635 19.0909 7.47204L22.9764 3.6275C20.5901 1.37969 17.4847 0 13.7675 0C8.38279 0 3.73242 3.1314 1.46844 7.68899L5.91993 11.1925C7.03673 7.82856 10.1267 5.3947 13.7675 5.3947Z" fill="#EB4335"/>
</svg>
